<svg height="80" width="80" version="1.1" xmlns="http://www.w3.org/2000/svg"><rect stroke-width="2" style="stroke-width: 2;" stroke="#808080" fill="#093b6c" ry="0" rx="0" r="0" height="80" width="80" y="0" x="0"></rect><circle stroke-width="5" style="stroke-width: 5;" stroke="#ffc979" fill="#ffc979" r="35" cy="40" cx="40"></circle><path stroke-width="1" style="stroke-width: 1;" d="M40,20L16,29L63,29L40,20M59,30L59,31L20,31M22,33L57,33L57,30M25,33L25,49M27,49L27,33M35,33L35,49M54,33L54,49M52,49L52,33M44,33L44,49" stroke="#000000" fill="none"></path><path stroke-width="1" style="stroke-width: 1;" d="M18,49L61,49M16,52L62,52" stroke="#000000" fill="none"></path><path stroke-width="1" style="stroke-width: 1;" d="M13,55L65,55" stroke="#000000" fill="none"></path></svg>